<?xml version="1.0" encoding="UTF-8"?>
<svg width="50px" height="15px" viewBox="0 0 50 15" version="1.1" xmlns="http://www.w3.org/2000/svg" xmlns:xlink="http://www.w3.org/1999/xlink">
    <!-- Generator: Sketch 46.2 (44496) - http://www.bohemiancoding.com/sketch -->
    <title>Page 1</title>
    <desc>Created with Sketch.</desc>
    <defs></defs>
    <g id="Pagine" stroke="none" stroke-width="1" fill="none" fill-rule="evenodd">
        <g id="TIT_desk_home_00Splash_01_@2x-Copy" transform="translate(-275.000000, -115.000000)" fill="#FFFFFF">
            <g id="Page-1" transform="translate(275.000000, 115.000000)">
                <path d="M6.89655672,0.14954834 C3.50495758,0.14954834 4.94798911e-05,1.33294267 4.94798911e-05,1.33294267 L4.94798911e-05,14.5512177 L3.67096261,14.5512177 L3.67096261,3.80371985 C3.67096261,3.80371985 4.97933464,3.25858287 6.89655672,3.25858287 C9.27035451,3.25858287 10.2636633,4.54905327 10.2636633,6.54953556 L10.2636633,14.5512177 L13.8852203,14.5512177 C13.8852203,14.3544794 13.884107,6.75121402 13.8852203,6.54953556 C13.8852203,2.22771327 11.8785633,0.14954834 6.89655672,0.14954834" id="Fill-2"></path>
                <path d="M44.5385819,0.548162777 L40.1591167,0.548162777 L36.8380264,4.64792881 L35.0158057,2.36055182 C34.1036439,1.21544305 32.6237004,0.548162777 31.1582297,0.548162777 L29.003999,0.548162777 L34.5424069,7.48155431 L28.8153569,14.5512918 L33.1587017,14.5512918 L36.7044307,10.1880964 L38.7463421,12.7444604 C39.6585039,13.8862346 41.1359735,14.5512918 42.5987228,14.5512918 L44.727224,14.5512918 L39.0005451,7.36262207 L44.5385819,0.548162777 Z" id="Fill-4"></path>
                <path d="M22.5217745,3.15276143 C24.118738,3.15276143 25.447273,3.89749028 25.9906859,5.1714693 L18.7600657,6.44606575 C19.1462563,4.32622491 20.6600936,3.15276143 22.5217745,3.15276143 M29.4644217,11.8621745 L27.0698424,9.92336046 C26.3109445,10.8156521 25.0122211,11.8650146 22.9052436,11.8650146 C21.2549656,11.8650146 19.7500347,10.954571 19.0605324,9.44140445 L29.8331706,7.54852623 C29.8331706,6.49965758 29.6248603,5.50215806 29.2470813,4.59739462 C28.1478855,1.96534432 25.6063509,0.12358826 22.5230115,0.12358826 C18.3799365,0.12358826 15.2128523,3.06410029 15.2128523,7.54852623 C15.2128523,11.8615571 18.3140045,14.9735877 22.9052436,14.9735877 C26.3293758,14.9735877 28.3884815,13.200365 29.4644217,11.8621745" id="Fill-6"></path>
                <polygon id="Fill-1" points="45.546611 14.5512301 49.0902371 14.5512301 49.0902371 0.548101026 45.546611 0.548101026"></polygon>
            </g>
        </g>
    </g>
</svg>
